# xmcd
#
# Track frame offsets: 
#        150
#        10201
#        20128
#        32745
#        46589
#        57108
#        66013
#        79654
#        91469
#        107174
#
# Disc length: 1635 seconds
#
# Revision: 2
# Processed by: cddbd v1.5.2PL0 Copyright (c) Steve Scherf et al.
# Submitted via: ExactAudioCopyFreeDBPlugin 1.0
#
DISCID=7506610a
DTITLE=Anne Murray - Anne Murray- The Early Years
DYEAR=2001
DGENRE=Country
TTITLE0=Some Birds
TTITLE1=It's All Over Now
TTITLE2=All The Time
TTITLE3=Buffalo In The Park
TTITLE4=For Baby
TTITLE5=Paths Of Victory
TTITLE6=David's Song
TTITLE7=Last Thing On My Mind
TTITLE8=Both Sides Now
TTITLE9=There Goes My Everything
EXTD=
EXTT0=
EXTT1=
EXTT2=
EXTT3=
EXTT4=
EXTT5=
EXTT6=
EXTT7=
EXTT8=
EXTT9=
PLAYORDER=
